<svg version="1" xmlns="http://www.w3.org/2000/svg" width="1262.667" height="1262.667" viewBox="0 0 947 947"><path d="M80 1.5C43.2 8.9 12.6 37.7 2.8 74L.5 82.5v782l2.3 8.5c9.1 33.9 37.3 62.1 71.2 71.2l8.5 2.3h782l8.5-2.3c33.9-9.1 62.1-37.3 71.2-71.2l2.3-8.5v-782l-2.3-8.5C939 54.4 925.9 34.4 910 21.7c-9.6-7.7-24.7-15.5-36.5-18.9l-8-2.3L476 .3C158.7.2 85.3.4 80 1.5zm392.5 88.1c41 4.1 56.4 6 57.5 7 1.3 1.3 1.2 2-1 6.2-2.9 5.4-9.6 10.1-15.9 10.9-3.1.4-4.2 1.1-4.6 2.7-.3 1.1-1.8 8.2-3.4 15.6-1.6 7.4-3.2 14.7-3.6 16.2l-.7 2.8h152.5c127.7 0 152.6.2 153.6 1.4.8.9 1 12.1.9 39.2l-.3 37.9-165.1.3-165.2.2-4 11.8c-2.2 6.4-4.4 12.5-4.7 13.4-.7 1.7 6.7 1.8 146.8 1.8 123.5 0 147.6.2 148.6 1.4.8.9 1.1 11.4.9 36.7l-.3 35.4-74.8.3c-41.2.1-74.7.6-74.5 1 .2.5 4.3 7 9.3 14.5l9 13.7H740c81.6 0 106.9.3 107.8 1.2 1.8 1.8 1.7 77.1-.1 78.7-1 .8-21.7 1.2-71.2 1.3l-69.8.3 10.9 9.4c42.2 36.2 90.3 65.7 139.4 85.6 5.8 2.4 10.8 4.9 11.3 5.6.6 1-3.2 5.4-13 15.4-16.4 16.5-32.1 35.9-44.2 54.2-4.7 7.2-9.1 13.2-9.8 13.2-2.1.1-31.4-15.3-47.1-24.7-8.3-5.1-15.4-9.2-15.7-9.2-.3 0-.6 16.1-.7 35.7l-.3 35.8-68 .5-68 .5 12.5 7.1c54.8 31.2 129.4 60.5 191.3 74.9 14.2 3.4 14.5 4 5.3 12.6-13 12.1-34.2 37.8-47.8 57.9-3.9 5.8-7.4 10.8-7.8 11.3-.8.9-27.9-8.3-48.3-16.4-61.3-24.5-122.3-58.9-171-96.5-5.6-4.3-10.5-8.1-10.9-8.2-.5-.2-.8 28.2-.8 63 0 48-.3 63.7-1.2 64.6-1.7 1.7-97.9 1.7-99.6 0-.9-.9-1.2-16.2-1.2-62.5 0-33.7-.2-61.3-.4-61.3s-6.1 4.3-13.2 9.6c-35 26.1-79.3 52.4-122.2 72.4-27.7 12.9-64.3 27.4-86.9 34.3l-8.2 2.5-2.5-4.1c-7.6-13.1-33.4-45.2-49.8-62.3-5.4-5.6-9.8-10.8-9.8-11.7 0-1 2.2-2 7.3-3.2 38.4-9.3 84.2-24.5 122.7-40.8 19.1-8.1 56.4-26.7 71.8-35.9l12.3-7.3-65.2-.3c-46.1-.1-65.6-.5-66.6-1.3-1-.9-1.3-8-1.3-36 0-19.2-.2-34.9-.5-34.9s-5.8 3.5-12.3 7.8c-11.7 7.9-35.7 22.5-48.5 29.6-5.1 2.9-7.1 3.5-8.1 2.7-.7-.6-3.2-4.3-5.5-8.1-10.6-17.9-26.3-37.2-44.2-54.4-7.1-6.8-12.9-12.9-12.9-13.4 0-.6 5.3-3.8 11.8-7.3 49.7-26.5 93.6-57.5 133.6-94.5l13-11.9-68-.5c-37.3-.3-68-.6-68.2-.8-.1-.1-.1-18.1 0-40l.3-39.7 102.2-.5 102.1-.5 2-2.5c2.4-3.2 16.2-24.7 16.2-25.5 0-.2-28.7-.6-63.7-.7l-63.8-.3-.3-35.6c-.2-29 0-35.8 1.1-36.8 1-.8 24.5-1.2 83.8-1.3l82.3-.3 5.2-13 5.1-13-112.6-.5-112.6-.5-.3-37.9c-.1-27.1.1-38.3.9-39.2 1-1.2 21.6-1.4 125.5-1.4 68.4 0 124.4-.3 124.4-.8 0-.4 1.8-9.3 3.9-19.7 2.2-10.5 4.9-24.9 6.1-32 2.7-16.4 2.4-15.6 5.7-15 1.5.3 28 3 58.8 6.1z"/><path d="M428.1 343.8c-3.9 7.1-7.3 13.6-7.7 14.5-.6 1.6 3.1 1.7 53.5 1.7h54l-7.2-14.5-7.2-14.5h-78.4l-7 12.8zM360.1 448.2c-3 3.9-9.9 12.5-15.5 19.2-5.6 6.7-10.8 13-11.6 14-1.5 1.9-1.2 1.9 11.5 1.2 72.5-3.8 159.5-13.2 211.8-22.8l16.7-3 18.7 17.8c10.2 9.9 25.5 24.4 33.9 32.4 10.5 10.1 15.2 15.2 15.3 16.8.2 3.5-5 5.2-15.6 5.2-5 0-18.3 1.5-30.8 3.4-12.1 1.9-32.3 4.6-45 6.1-12.6 1.5-23.6 2.9-24.2 3.1-1 .3-1.3 5.4-1.3 21.4v21l101.8-.1c96 0 101.6-.1 99.2-1.7-36.7-25.2-73.4-57.1-102.9-89.5-12.5-13.8-30-34.7-37.9-45.5l-4.6-6.2-107 .1H365.5l-5.4 7.1zM288.5 526.7c-12.7 12.1-36.8 32.3-55.4 46.4L218.7 584H422v-17c0-12.9-.3-17-1.2-17-.7 0-8.5.4-17.3 1-19.4 1.1-60.8 2.8-80.4 3.2l-14.4.3-1.7-8.7c-1.6-7.6-7.7-28.9-8.3-28.8-.1.1-4.7 4.4-10.2 9.7z"/></svg>